<?xml version="1.0" encoding="UTF-8" standalone="no"?>
<!-- Created with Inkscape (http://www.inkscape.org/) -->

<svg
   xmlns:dc="http://purl.org/dc/elements/1.1/"
   xmlns:cc="http://creativecommons.org/ns#"
   xmlns:rdf="http://www.w3.org/1999/02/22-rdf-syntax-ns#"
   xmlns:svg="http://www.w3.org/2000/svg"
   xmlns="http://www.w3.org/2000/svg"
   xmlns:sodipodi="http://sodipodi.sourceforge.net/DTD/sodipodi-0.dtd"
   xmlns:inkscape="http://www.inkscape.org/namespaces/inkscape"
   width="1299.1516"
   height="800"
   id="svg2"
   version="1.1"
   inkscape:version="0.48.4 r9939"
   sodipodi:docname="Ben Chang (Senor Chang) by Rones.svg">
  <defs
     id="defs4" />
  <sodipodi:namedview
     id="base"
     pagecolor="#ffffff"
     bordercolor="#666666"
     borderopacity="1.0"
     inkscape:pageopacity="0.0"
     inkscape:pageshadow="2"
     inkscape:zoom="0.175"
     inkscape:cx="-1575.7928"
     inkscape:cy="1127.5993"
     inkscape:document-units="px"
     inkscape:current-layer="layer1"
     showgrid="false"
     fit-margin-top="0"
     fit-margin-left="0"
     fit-margin-right="0"
     fit-margin-bottom="0"
     inkscape:window-width="1280"
     inkscape:window-height="1002"
     inkscape:window-x="1912"
     inkscape:window-y="-8"
     inkscape:window-maximized="1" />
  <metadata
     id="metadata7">
    <rdf:RDF>
      <cc:Work
         rdf:about="">
        <dc:format>image/svg+xml</dc:format>
        <dc:type
           rdf:resource="http://purl.org/dc/dcmitype/StillImage" />
        <dc:title />
      </cc:Work>
    </rdf:RDF>
  </metadata>
  <g
     inkscape:label="Layer 1"
     inkscape:groupmode="layer"
     id="layer1"
     transform="translate(631.45288,-572.375)">
    <g
       id="g3005"
       transform="matrix(0.64956005,0,0,0.64956005,-221.28632,480.93503)">
      <rect
         inkscape:export-ydpi="90"
         inkscape:export-xdpi="90"
         inkscape:export-filename="D:\!Закачалось D\path3043.png"
         y="140.79613"
         x="-631.42889"
         height="1231.4292"
         width="2000.0006"
         id="rect3054"
         style="color:#000000;fill:#6e4347;fill-opacity:1;stroke:none;stroke-width:0.29935935;marker:none;visibility:visible;display:inline;overflow:visible;enable-background:accumulate" />
      <rect
         inkscape:export-ydpi="90"
         inkscape:export-xdpi="90"
         inkscape:export-filename="D:\!Закачалось D\path3043.png"
         style="color:#000000;fill:#4a7f7a;fill-opacity:1;stroke:none;stroke-width:0.25142485;marker:none;visibility:visible;display:inline;overflow:visible;enable-background:accumulate"
         id="rect3056"
         width="2000.0486"
         height="868.62"
         x="-631.45288"
         y="140.77216" />
      <path
         inkscape:export-ydpi="90"
         inkscape:export-xdpi="90"
         inkscape:export-filename="D:\!Закачалось D\path3043.png"
         sodipodi:nodetypes="ccccc"
         inkscape:connector-curvature="0"
         id="path2996"
         d="m -265.67012,943.26571 c 4.0354,112.64679 36.12343,198.22409 103.03556,249.50769 L -59.599,1139.2353 -160.61425,951.34693 z"
         style="fill:#000000;stroke:none" />
      <path
         inkscape:export-ydpi="90"
         inkscape:export-xdpi="90"
         inkscape:export-filename="D:\!Закачалось D\path3043.png"
         inkscape:connector-curvature="0"
         id="path2998"
         d="m 1124.3125,1015 -23.25,195.9688 c 29.2944,25.2537 60.7265,48.2022 87.875,75.75 18.8637,19.1411 33.9195,41.7282 49.5,63.625 5.0276,7.0658 9.5051,14.5316 13.875,22.0312 l 104.875,0 c -3.8176,-2.7673 -9.0272,-3.994 -11.6563,-7.875 -4.4208,-6.5259 -3.9901,-15.4888 -8.0937,-22.2188 -4.4692,-7.3295 -13.3676,-11.484 -17.1563,-19.1874 -26.6757,-54.2407 -45.3388,-112.3355 -73.75,-165.6876 -15.8961,-29.8508 -38.6152,-55.5247 -58.5937,-82.8124 -7.642,-10.4378 -14.8079,-21.47 -24.25,-30.3126 -11.9445,-11.186 -26.243,-19.5164 -39.375,-29.2812 z"
         style="fill:#bc8c75;fill-opacity:1;stroke:none" />
      <path
         inkscape:export-ydpi="90"
         inkscape:export-xdpi="90"
         inkscape:export-filename="D:\!Закачалось D\path3043.png"
         sodipodi:nodetypes="csssccc"
         inkscape:connector-curvature="0"
         id="path3000"
         d="m -160.71429,1095.9336 c -20,7.6191 -39.76558,15.8845 -60,22.8572 -15.02817,5.1786 -30.26364,9.8375 -45.71428,13.5714 -13.16526,3.1816 -26.70143,4.5748 -40,7.1428 -21.22737,4.0991 -42.38095,8.5715 -63.57143,12.8572 l 20.71429,-130 132.85714,-51.42859"
         style="fill:#bc8c75;fill-opacity:1;stroke:none" />
      <path
         inkscape:export-ydpi="90"
         inkscape:export-xdpi="90"
         inkscape:export-filename="D:\!Закачалось D\path3043.png"
         inkscape:connector-curvature="0"
         id="path3002"
         d="m 615.1875,684.65625 c -171.94551,44.08321 -389.92313,-32.84414 -512.34375,73.40625 -14.37587,-1.19599 -25.74374,1.10781 -38.5625,4.3125 -24.898009,-17.14962 -41.435448,-2.85608 -45.71875,22.84375 -31.501113,16.63428 -67.177598,30.36567 -97.125,42.84375 l -118.59375,57.15625 -81.40625,35.71875 1.40625,38.5625 50,51.4375 37.15625,74.2813 24.28125,74.2812 4.28125,32.875 c 11.90476,-5.7143 23.07861,-13.3347 35.71875,-17.1562 8.21732,-2.4844 17.52905,1.1364 25.71875,-1.4376 8.959853,-2.816 15.196612,-11.8984 24.28125,-14.2812 20.454377,-5.365 42.24664,-3.911 62.875,-8.5625 28.076052,-6.3308 55.224702,-16.1861 82.84375,-24.2813 9.52381,19.0477 19.03869,38.0774 28.5625,57.125 -1.904762,12.381 -9.566649,25.2354 -5.71875,37.1563 16.77827,51.9797 40.3463,101.4529 62.53125,151.4375 l 898.0938,0 c -8.2221,-16.2794 -16.6907,-32.4005 -27.1563,-47.2812 -4.0724,-5.7905 -15.4614,-3.0747 -19.1875,-9.0938 -5.9788,-9.6581 -3.4705,-22.5365 -7.0625,-33.3125 -5.20115,-15.6035 -13.51721,-30.0411 -19.21875,-45.4687 -5.7586,-15.5822 -12.8466,-31.0137 -15.125,-47.4688 -0.87624,-6.3284 4.04219,-12.1266 6.0625,-18.1875 27.61085,19.8663 54.70835,40.4319 82.81255,59.5937 16.3668,11.1593 31.9886,24.2607 50.5,31.3126 10.7029,4.0772 24.3317,6.5622 34.3437,1 16.4543,-9.1414 29.0459,-25.0755 38.4063,-41.4063 7.0286,-12.2626 8.9465,-27.273 9.0937,-41.4063 0.1949,-18.7134 -3.2405,-37.4884 -8.0937,-55.5624 -4.9782,-18.5391 -15.7354,-35.1353 -21.2188,-53.5313 -4.9989,-16.7704 -6.7266,-34.3587 -10.0938,-51.5313 -22.56,-17.846 -45.1586,-35.64572 -67.6874,-53.5312 -21.5813,-17.13319 -43.4403,-33.91022 -64.625,-51.53125 -14.8552,-12.35624 -28.9587,-25.57973 -43.43755,-38.375 -2.51952,-21.98371 -15.80876,-18.1875 -33.34375,-18.1875 -8.68904,-43.70916 -37.96001,-46.38503 -71.71875,-51.5 -11.79394,-42.60088 -39.44436,-74.11315 -74.75,-90.9375 -57.12193,-27.22057 -118.611,-25.07997 -176.78125,-31.3125 z"
         style="fill:#68121e;fill-opacity:1;stroke:none" />
      <path
         inkscape:export-ydpi="90"
         inkscape:export-xdpi="90"
         inkscape:export-filename="D:\!Закачалось D\path3043.png"
         sodipodi:nodetypes="ccccccssssccsssccc"
         inkscape:connector-curvature="0"
         id="path3004"
         d="m -396.98995,1149.8419 c -7.48087,-2.795 -12.61429,-9.9497 -19.69798,-13.6371 -19.40094,-5.4954 -23.44537,-8.6964 -32.32488,-27.2741 -7.22722,-14.3116 0.74678,-24.6225 1.51523,-36.3655 -4.48892,-34.5946 24.00162,-44.6103 43.94164,-72.2259 16.9929,-53.88847 46.28037,-86.48901 88.89342,-118.18782 20.60824,-15.35355 44.86563,-25.30549 65.65992,-40.4061 21.75086,-15.79527 40.79806,-35.0209 61.6193,-52.02286 7.64181,-6.24006 16.52608,-10.946 23.73859,-17.67767 3.03984,-2.83718 9.77868,-8.68492 12.99456,-11.32089 7.30207,-5.9853 13.3053,-8.33623 21.38652,-13.21863 26.76904,25.42217 49.966655,50.13005 76.735698,75.55222 -9.764808,9.42809 -19.261586,19.14193 -29.294424,28.28428 -18.426244,16.79078 -38.936934,31.38287 -56.063464,49.49747 -26.76075,28.30464 -51.19074,58.7695 -75.25637,89.3985 -13.01236,16.5612 -25.91795,33.4557 -35.86041,52.0229 -5.20642,26.0584 -6.77633,28.5221 -24.24366,46.9721 -29.39582,34.6562 -75.97346,78.1895 -123.74369,60.6091 z"
         style="fill:#bc8c75;fill-opacity:1;stroke:none" />
      <path
         inkscape:export-ydpi="90"
         inkscape:export-xdpi="90"
         inkscape:export-filename="D:\!Закачалось D\path3043.png"
         sodipodi:nodetypes="ssssssccccsssssssssccccccss"
         inkscape:connector-curvature="0"
         id="path3006"
         d="m -29.294424,809.4205 c -4.465646,7.45441 -12.981911,12.36732 -21.213203,15.15228 -4.946392,1.67355 -10.500787,1.32805 -15.657365,0.50508 -7.783847,-1.24228 -14.945869,-5.05307 -22.223356,-8.08122 -5.840883,-2.43038 -11.677792,-4.94597 -17.172592,-8.08122 -4.42087,-2.52248 -12.62691,-8.5863 -12.62691,-8.5863 -17.26868,-11.74271 -22.65507,-21.2443 -23.23351,-40.91118 l -8.58629,-24.24366 -4.04061,-10.6066 c -5.0504,-9.51795 -2.24713,-17.61723 -0.50508,-27.77919 -7.60969,-17.10165 -12.75573,-27.67659 2.02031,-36.87057 0,0 14.64238,-10.36907 22.72843,-14.14214 9.31158,-4.34492 19.43451,-6.70402 29.29442,-9.59645 12.852193,-3.77022 25.522711,-9.2735 38.890875,-10.10152 10.338015,-0.64033 20.460203,3.62411 30.809652,4.04061 10.105964,0.40671 20.202355,-2.00618 30.30457673,-1.51523 9.17976547,0.44612 19.06447127,-0.0908 27.27411827,4.04061 4.891692,2.46171 9.759775,6.46502 11.616755,11.61675 1.834909,5.0905 0.935834,11.3383 -1.515229,16.16244 -5.764602,11.34578 -15.755103,8.80152 -24.540959,11.38465 l 1.095209,13.12172 12.580483,0.2382 c -2.700689,3.40878 -10.379713,7.00341 -20.9545383,11.11585 -4.49032123,21.30856 -13.0715743,29.04862 -26.2639657,45.96194 l -6.565992,15.65737 c 0,0 2.205867,16.13655 2.020305,24.24366 -0.209776,9.16504 1.175645,19.40985 -3.535534,27.27412 z"
         style="fill:#bc8c75;fill-opacity:1;stroke:none" />
      <path
         inkscape:export-ydpi="90"
         inkscape:export-xdpi="90"
         inkscape:export-filename="D:\!Закачалось D\path3043.png"
         inkscape:connector-curvature="0"
         id="path3008"
         d="M 21.21875,594.25 0.5,598.8125 l 5.0625,21.21875 1.09375,8.8125 c 6.976461,0.23324 14.022147,0.74131 20.125,3.8125 4.891692,2.46171 9.73677,6.44202 11.59375,11.59375 1.834909,5.0905 0.951063,11.36336 -1.5,16.1875 -5.764602,11.34578 -15.745394,8.79187 -24.53125,11.375 l 0.75,9.15625 0.5,3.96875 6.1875,0.125 50.9375,-0.90625 16.65625,-17.6875 -6.0625,-29.28125 -10.59375,-7.5625 -4.0625,-13.15625 4.0625,-3.03125 -3.03125,-8.5625 -15.15625,-0.5 -11.625,-7.59375 -19.6875,-2.53125 z"
         style="fill:#e6e6e6;stroke:none" />
      <path
         inkscape:export-ydpi="90"
         inkscape:export-xdpi="90"
         inkscape:export-filename="D:\!Закачалось D\path3043.png"
         sodipodi:nodetypes="ccsccccccccccc"
         inkscape:connector-curvature="0"
         id="path3013"
         d="M 385.87827,1040.2404 C 326.8564,992.82399 285.9836,946.62609 253.54829,885.68701 c -30.89931,-8.9598 -52.28787,-18.4615 -71.72083,-40.4061 -13.57866,-15.33366 -18.85618,-36.36549 -28.28427,-54.54824 -15.02437,-24.6138 -20.86802,-49.12688 -27.27412,-74.75128 -15.13053,-39.32076 -16.07356,-69.15583 -7.07107,-106.06602 -1.97613,-5.35769 -0.0723,-9.8846 1.51523,-14.64721 -5.70239,-13.61873 -1.78285,-26.44546 2.52538,-39.14342 6.90271,-26.85322 13.80542,-53.70644 20.70813,-80.55966 27.61084,-24.24366 55.22167,-48.48732 82.83251,-72.73098 66.67007,3.19881 133.34013,6.39763 200.0102,9.59644 27.61084,78.62354 55.22167,157.24708 82.83251,235.87062 l 28.23518,150.48959 c -25.33911,95.17181 -67.1116,192.6744 -151.97887,241.44965 z"
         style="fill:#bc8c75;fill-opacity:1;stroke:none" />
      <path
         inkscape:export-ydpi="90"
         inkscape:export-xdpi="90"
         inkscape:export-filename="D:\!Закачалось D\path3043.png"
         sodipodi:nodetypes="ccccsssssccsssssssscsssssssscsssccscccccc"
         inkscape:connector-curvature="0"
         id="path3015"
         d="m 121.42857,560.93361 c -13.51482,-37.67679 -11.44061,-70.65452 6.42857,-103.57143 1.56451,-35.32657 64.27576,-112.50071 115,-122.85714 63.09727,-36.19234 192.39297,-41.80102 215.71429,40 13.57143,3.09524 28.08741,3.42684 40.71428,9.28571 17.61116,8.17158 36.65201,16.81789 48.57143,32.14286 14.22424,18.28831 19.10197,42.3059 26.42857,64.28571 7.94432,23.83297 13.29347,48.46011 19.28572,72.85715 4.01015,16.32702 8.74991,32.58858 10.71428,49.28571 0.92182,7.83551 -1.42857,15.71429 -2.14285,23.57143 21.14997,3.00219 28.74478,-4.53258 45,-14.28571 -3.57143,15.95238 -8.25497,31.69591 -10.71429,47.85714 -2.55225,16.77194 -0.45166,34.18819 -4.28571,50.71429 -3.15827,13.61323 -7.83212,27.55344 -16.42857,38.57142 -8.87636,11.37674 -22.4069,18.23629 -34.28572,26.42858 -8.87441,6.12029 -17.94173,12.198 -27.85714,16.42857 -8.12645,3.46728 -16.96581,7.66365 -25.71429,6.42857 -12.56832,-1.77435 -24.51273,-7.84959 -35,-15 -10.85,-7.39773 -18.71763,-18.42749 -27.85714,-27.85714 -5.86335,-6.04948 -11.42857,-12.38095 -17.14286,-18.57143 2.85714,-2.61905 5.25676,-5.84826 8.57143,-7.85715 4.65214,-2.81948 10.50008,-3.37202 15,-6.42857 8.24633,-5.60128 16.91252,-11.28334 22.85714,-19.28571 6.7333,-9.06405 12.01679,-19.65326 14.28572,-30.71429 1.68544,-8.21649 1.49583,-17.8304 -2.85714,-25 -1.82443,-3.00495 -6.97079,2.35436 -9.28572,5 -4.57108,5.22409 -5.73311,13.02249 -10.71428,17.85715 -3.52221,3.41862 -9.30374,3.28946 -13.57143,5.71428 -6.25852,3.55598 -11.90477,8.09524 -17.85715,12.14286 -0.23809,-2.38095 -1.58623,-4.91456 -0.71428,-7.14286 1.423,-3.63655 5.78658,-5.62375 7.14286,-9.28571 1.15772,-3.12583 1.23797,-6.90508 0,-10 -0.88426,-2.21066 -3.80953,-2.85715 -5.71429,-4.28572 -16.12491,16.45622 -22.45641,20.61411 -42.85714,25.71429 C 394.65208,634.55728 384.4667,589.19813 370,543.79075 c -3.793,-11.90527 -9.64285,-22.85714 -16.07142,-33.57142 0.53964,-33.15526 -4.04676,-44.15501 -18.21429,-65.71429 -34.23402,2.13756 -68.21067,0.59212 -100,-0.71429 -31.06201,9.30111 -51.27892,24.37935 -71.42858,45.71429 -10.72319,19.63084 -24.52644,37.17009 -37.14285,53.57143 0.0339,5.95238 -2.99227,11.90476 -5.71429,17.85714 z"
         style="fill:#000000;stroke:none" />
      <path
         inkscape:export-ydpi="90"
         inkscape:export-xdpi="90"
         inkscape:export-filename="D:\!Закачалось D\path3043.png"
         sodipodi:nodetypes="ccsscccc"
         inkscape:connector-curvature="0"
         id="path3019"
         d="m 152.5,682.00504 c -4.95635,-5.70812 -5.9285,-10.71363 -6.78571,-17.85714 1.90476,3.69047 2.52991,8.40543 5.71428,11.07142 2.50648,2.09845 6.5936,0.6076 9.64286,1.78572 2.31075,0.89279 4.04762,2.85714 6.07143,4.28571 -2.61905,0.35714 -5.2381,0.71429 -7.85715,1.07143 -11.6333,23.18442 -10.45996,32.86221 -1.25,69.45468 C 143.47528,720.98731 145.46049,713.95358 152.5,682.00504 z"
         style="fill:#000000;fill-opacity:1;stroke:none" />
      <path
         inkscape:export-ydpi="90"
         inkscape:export-xdpi="90"
         inkscape:export-filename="D:\!Закачалось D\path3043.png"
         sodipodi:nodetypes="cccscccccc"
         inkscape:connector-curvature="0"
         id="path3021"
         d="m 214.64286,634.86218 c 10.02913,17.09166 21.80935,29.09037 9.28571,37.5 -3.75479,3.5223 -7.71359,4.74188 -12.5,6.07143 -11.27888,-10.48386 -23.86764,-1.05554 -20.71428,5 1.30346,2.50308 12.56627,2.00931 22.14285,-3.21429 l 12.14286,-5 7.14286,-0.35714 c 18.66826,11.41226 19.95994,56.95659 19.07651,74.84156 3.40751,-29.98158 4.46702,-63.29939 -16.93366,-78.05584 -0.45508,-19.50734 -4.98607,-25.1465 -19.64285,-36.78572 z"
         style="fill:#000000;fill-opacity:1;stroke:none" />
      <path
         inkscape:export-ydpi="90"
         inkscape:export-xdpi="90"
         inkscape:export-filename="D:\!Закачалось D\path3043.png"
         sodipodi:nodetypes="csssssscsssssc"
         inkscape:connector-curvature="0"
         id="path3023"
         d="m 122.73353,562.94327 c 2.02031,-1.09433 3.76353,-3.3178 6.06092,-3.28299 3.72635,0.0565 7.25005,1.91614 10.6066,3.53553 6.28183,3.03071 12.08334,6.9712 18.18275,10.35407 3.91893,2.17352 7.70044,4.6694 11.86929,6.31345 1.89406,0.74695 4.06122,1.14053 6.06091,0.75761 2.14483,-0.41071 4.52841,-1.26108 5.80838,-3.03045 1.81015,-2.50227 1.85195,-5.89256 2.77792,-8.83884 -1.93613,2.60956 -3.06942,6.0804 -5.80838,7.82868 -1.70444,1.08794 -4.31528,0.768 -6.06091,-0.25253 -4.01343,-2.34631 -6.38116,-6.92962 -10.35406,-9.34392 -7.07959,-4.30221 -14.65476,-7.87541 -22.4759,-10.6066 -2.9448,-1.02834 -6.4418,-1.64833 -9.34391,-0.50507 -3.15723,1.24376 -4.88241,4.71404 -7.32361,7.07106 z"
         style="fill:#000000;stroke:none" />
      <path
         inkscape:export-ydpi="90"
         inkscape:export-xdpi="90"
         inkscape:export-filename="D:\!Закачалось D\path3043.png"
         sodipodi:nodetypes="cssssssscsssssssc"
         inkscape:connector-curvature="0"
         id="path3025"
         d="m 204.30335,575.0651 c 3.283,3.11464 5.88378,7.16305 9.84899,9.34392 3.06789,1.68734 7.05767,2.94795 10.35406,1.76776 4.26497,-1.52696 6.66204,-6.14324 10.10153,-9.09137 3.04447,-2.60954 5.66182,-5.98845 9.34391,-7.57614 5.7186,-2.46582 12.32049,-2.19159 18.18275,-4.29315 3.16668,-1.13523 5.2876,-4.64356 8.58629,-5.3033 5.86067,-1.17213 12.0163,-0.86434 17.93021,0 5.16291,0.75458 9.93317,3.19881 14.89975,4.79822 -5.13494,-2.69374 -9.85302,-6.40751 -15.40483,-8.08122 -6.08811,-1.83538 -12.62782,-3.038 -18.94036,-2.27284 -5.20138,0.63047 -9.34776,4.90614 -14.39467,6.31345 -3.82482,1.06653 -8.25213,-0.62781 -11.86929,1.01015 -5.64393,2.55574 -10.35155,6.90459 -14.89975,11.11168 -2.26295,2.09323 -2.58213,6.12778 -5.3033,7.57615 -3.05482,1.62595 -7.02836,1.71432 -10.35407,0.75761 -3.23594,-0.93089 -5.38748,-4.04061 -8.08122,-6.06092 z"
         style="fill:#000000;stroke:none" />
      <path
         inkscape:export-ydpi="90"
         inkscape:export-xdpi="90"
         inkscape:export-filename="D:\!Закачалось D\path3043.png"
         sodipodi:nodetypes="csssscsssc"
         inkscape:connector-curvature="0"
         id="path3027"
         d="m 229.05209,601.07653 c 3.87225,-0.50508 7.78753,-0.74939 11.61675,-1.51523 4.18462,-0.83692 8.14576,-2.70823 12.37437,-3.28299 4.50504,-0.61234 9.09157,-0.15849 13.63706,-0.25254 7.66053,-0.15849 15.3928,-1.56742 22.98097,-0.50508 5.27914,0.73908 9.93317,3.87225 14.89975,5.80838 -5.05076,-0.84179 -10.04114,-2.21717 -15.15229,-2.52538 -11.68093,-0.70438 -23.41433,-1.07065 -35.1028,-0.50508 -4.0586,0.19638 -7.83031,2.33363 -11.86929,2.77792 -4.43476,0.48782 -8.92301,0 -13.38452,0 z"
         style="fill:#000000;fill-opacity:1;stroke:none" />
      <path
         inkscape:export-ydpi="90"
         inkscape:export-xdpi="90"
         inkscape:export-filename="D:\!Закачалось D\path3043.png"
         sodipodi:nodetypes="sscsscs"
         inkscape:connector-curvature="0"
         id="path3029"
         d="m 267.43789,620.01689 c 5.46917,-0.8701 10.24929,-4.36351 15.65736,-5.55584 5.36605,-1.18307 10.94332,-1.01015 16.41498,-1.51523 -5.38748,1.34687 -10.84455,2.44093 -16.16244,4.04062 -5.04834,1.51861 -9.64588,4.86877 -14.89975,5.3033 -6.26451,0.51812 -12.45855,-1.68359 -18.68783,-2.52539 5.89256,0.0842 11.85771,1.17844 17.67768,0.25254 z"
         style="fill:#000000;fill-opacity:1;stroke:none" />
      <path
         inkscape:export-ydpi="90"
         inkscape:export-xdpi="90"
         inkscape:export-filename="D:\!Закачалось D\path3043.png"
         sodipodi:nodetypes="ccc"
         inkscape:connector-curvature="0"
         id="path3031"
         d="m 122.73353,594.51054 c 12.68796,-2.65898 25.22095,0.89137 37.62819,3.53553 -12.47236,-1.94806 -25.02022,-3.10077 -37.62819,-3.53553 z"
         style="fill:#000000;fill-opacity:1;stroke:none" />
      <path
         inkscape:export-ydpi="90"
         inkscape:export-xdpi="90"
         inkscape:export-filename="D:\!Закачалось D\path3043.png"
         sodipodi:nodetypes="ccc"
         inkscape:connector-curvature="0"
         id="path3035"
         d="m 125.00638,608.1476 c 13.65504,5.73872 27.27613,4.1644 41.41625,1.76777 -19.13958,5.78475 -23.87067,6.6236 -41.41625,-1.76777 z"
         style="fill:#000000;fill-opacity:1;stroke:none" />
      <path
         inkscape:export-ydpi="90"
         inkscape:export-xdpi="90"
         inkscape:export-filename="D:\!Закачалось D\path3043.png"
         sodipodi:nodetypes="sscssscs"
         inkscape:connector-curvature="0"
         id="path3037"
         d="m 189.15106,785.93445 c 5.75795,1.35032 11.78066,1.96538 17.67767,1.51523 5.29324,-0.40406 10.26989,-2.69374 15.40483,-4.04061 -1.93613,4.29315 -1.86079,10.31113 -5.80838,12.87944 -4.2389,2.75784 -10.17129,1.63148 -15.15229,0.75762 -4.86651,-0.85377 -9.60608,-2.95126 -13.63705,-5.80838 -3.81841,-2.70645 -6.22928,-6.98689 -9.34391,-10.48033 3.61971,1.72568 6.95503,4.26147 10.85913,5.17703 z"
         style="fill:#000000;fill-opacity:1;stroke:none" />
      <path
         inkscape:export-ydpi="90"
         inkscape:export-xdpi="90"
         inkscape:export-filename="D:\!Закачалось D\path3043.png"
         sodipodi:nodetypes="csscsscsssssc"
         inkscape:connector-curvature="0"
         id="path3039"
         d="m 162.63456,746.03342 c 0.75761,-5.7242 0.6537,-11.63014 2.27284,-17.17259 0.63777,-2.18315 2.01875,-5.3033 4.29315,-5.3033 3.22199,0 5.38748,3.53553 8.08122,5.3033 3.87225,-2.35702 7.08517,-7.19191 11.61676,-7.07107 9.15645,0.24417 17.84254,4.47847 26.26396,8.08122 7.42059,3.17458 13.97378,8.08122 20.96067,12.12183 -0.58926,5.21912 0.26115,10.81279 -1.76777,15.65736 -2.25033,5.37324 -5.56512,10.97085 -10.6066,13.8896 -6.82043,3.94867 -15.12749,6.21396 -22.98097,5.55585 -8.00787,-0.67105 -15.68747,-4.66862 -22.22336,-9.34392 -5.35698,-3.832 -8.48205,-10.0915 -12.37437,-15.40482 -1.42539,-1.94577 -2.35702,-4.20897 -3.53553,-6.31346 z"
         style="fill:#934b44;fill-opacity:1;stroke:none" />
      <path
         inkscape:export-ydpi="90"
         inkscape:export-xdpi="90"
         inkscape:export-filename="D:\!Закачалось D\path3043.png"
         sodipodi:nodetypes="cccssssc"
         inkscape:connector-curvature="0"
         id="path3041"
         d="m 173.99878,747.29611 c 5.00436,-0.29356 9.2764,-1.07183 13.63706,-2.52538 12.226,4.38479 24.96335,2.40376 36.87056,3.03046 -0.92597,2.02031 -1.06625,4.64344 -2.77792,6.06092 -3.91697,3.24374 -8.41295,6.25214 -13.38452,7.3236 -5.19471,1.11955 -10.69362,0.004 -15.9099,-1.01015 -3.97492,-0.7729 -8.04471,-1.97404 -11.36422,-4.29315 -3.03943,-2.12344 -4.71404,-5.7242 -7.07106,-8.5863 z"
         style="fill:#000000;fill-opacity:1;stroke:none" />
      <path
         inkscape:export-ydpi="90"
         inkscape:export-xdpi="90"
         inkscape:connector-curvature="0"
         id="path3043"
         d="m 187.625,744.78125 c -0.75537,0.25179 -1.49568,0.47524 -2.25,0.6875 l 0,5.625 c 4.57519,3.2504 8.5409,2.20721 13.875,1.75 6.25614,1.96922 12.10229,2.1676 17.9375,-0.75 l 0.0937,-4.40625 c -9.75426,0.0453 -19.8692,0.60382 -29.65625,-2.90625 z"
         style="fill:#ececec;stroke:none" />
    </g>
  </g>
</svg>
